<svg xmlns="http://www.w3.org/2000/svg" viewBox="0 0 320 512"><!--! Font Awesome Free 6.4.0 by @fontawesome - https://fontawesome.com License - https://fontawesome.com/license/free (Icons: CC BY 4.0, Fonts: SIL OFL 1.1, Code: MIT License) Copyright 2023 Fonticons, Inc. --><path fill="#10B981" d="M0 256L28.5 28c2-16 15.6-28 31.8-28H228.9c15 0 27.1 12.1 27.1 27.1c0 3.2-.6 6.5-1.7 9.5L192 210.7H307.2c10.6 0 20.2 5.8 25.1 15.1s4.3 20.5-1.7 28.7L92.1 501.1c-10.4 14.2-30.5 14.2-40.9 0c-4.4-6-6.2-13.4-5-20.7l40.3-224.4H12.8c-10.6 0-20.2-5.8-25.1-15.1S-4.3 220.5 1.7 212.3L0 256z"/></svg>
